<svg xmlns="http://www.w3.org/2000/svg" viewBox="0 0 258.62 49.76"><defs><style>.cls-1{fill:#231f20;}.cls-2{fill:#00aeef;}</style></defs><g id="Layer_2" data-name="Layer 2"><g id="Layer_1-2" data-name="Layer 1"><path class="cls-1" d="M0,.56H15.29c2.66,0,4.66.55,6,1.64a6,6,0,0,1,2,4.91v4.13a6,6,0,0,1-2,4.93q-2,1.66-6,1.66H5.87V28.1H0ZM5.87,6.32V12H14.5a3.47,3.47,0,0,0,2.15-.57,1.9,1.9,0,0,0,.73-1.62V8.49a1.9,1.9,0,0,0-.73-1.62,3.54,3.54,0,0,0-2.15-.55Z"/><path class="cls-1" d="M34.21.56H48.49V6.32H34.09a3.34,3.34,0,0,0-2.2.63,2.3,2.3,0,0,0-.75,1.87,2.25,2.25,0,0,0,.75,1.84,3.39,3.39,0,0,0,2.2.62h6.18a10.09,10.09,0,0,1,7,2.23,7.84,7.84,0,0,1,2.5,6.18,7.82,7.82,0,0,1-2.5,6.18,10.09,10.09,0,0,1-7,2.23H25.83V22.31H40.41A4.17,4.17,0,0,0,43,21.65a2.32,2.32,0,0,0,.86-2,2.33,2.33,0,0,0-.86-2,4.24,4.24,0,0,0-2.55-.65h-6.2a9.26,9.26,0,0,1-6.54-2.21,7.83,7.83,0,0,1-2.4-6,7.81,7.81,0,0,1,2.4-6.05A9.26,9.26,0,0,1,34.21.56Z"/><path class="cls-1" d="M49.54.56h6.55l5.39,10.27a2.42,2.42,0,0,0,.76.93,1.59,1.59,0,0,0,1,.35,1.67,1.67,0,0,0,1-.35,2.44,2.44,0,0,0,.77-.93L70.41.56h6.51L70.53,12.73a8.9,8.9,0,0,1-1.82,2.48,8.74,8.74,0,0,1-2.54,1.69V28.1H60.29V16.9a9.12,9.12,0,0,1-2.56-1.69,8.9,8.9,0,0,1-1.82-2.48Z"/><path class="cls-1" d="M85.37.56H97.52V6.32H85.93a3.33,3.33,0,0,0-2.46.84,3.42,3.42,0,0,0-.83,2.49V19a3.34,3.34,0,0,0,.83,2.46,3.33,3.33,0,0,0,2.46.84H97.52V28.1H85.37a8.53,8.53,0,0,1-6.32-2.29,8.64,8.64,0,0,1-2.28-6.35V9.17a8.56,8.56,0,0,1,2.28-6.33A8.56,8.56,0,0,1,85.37.56Z"/><path class="cls-1" d="M100.55.56h5.87V10.91h13V.56h5.88V28.1H119.4V16.71h-13V28.1h-5.87Z"/><path class="cls-1" d="M137.37,0h8.93a8.54,8.54,0,0,1,6.34,2.29,8.5,8.5,0,0,1,2.29,6.31V20a8.62,8.62,0,0,1-2.29,6.36,8.51,8.51,0,0,1-6.34,2.3h-8.93a8.49,8.49,0,0,1-6.32-2.3A8.66,8.66,0,0,1,128.76,20V8.6a8.54,8.54,0,0,1,2.29-6.31A8.53,8.53,0,0,1,137.37,0Zm.56,5.79a3.33,3.33,0,0,0-2.46.84,3.34,3.34,0,0,0-.83,2.46V19.57a3.38,3.38,0,0,0,.83,2.47,3.37,3.37,0,0,0,2.46.83h7.83a3.34,3.34,0,0,0,2.46-.83,3.34,3.34,0,0,0,.84-2.47V9.09a3.3,3.3,0,0,0-.84-2.46,3.3,3.3,0,0,0-2.46-.84Z"/><path class="cls-2" d="M158.42.56h5.87V19.13a3.45,3.45,0,0,0,.7,2.49,3.55,3.55,0,0,0,2.52.69h8.93V28.1h-9.36c-3.11,0-5.34-.66-6.67-2s-2-3.55-2-6.66Z"/><path class="cls-2" d="M186.36,0h8.94a8.56,8.56,0,0,1,6.34,2.29,8.54,8.54,0,0,1,2.28,6.31V20a8.66,8.66,0,0,1-2.28,6.36,8.53,8.53,0,0,1-6.34,2.3h-8.94a8.47,8.47,0,0,1-6.31-2.3A8.62,8.62,0,0,1,177.76,20V8.6a8.5,8.5,0,0,1,2.29-6.31A8.5,8.5,0,0,1,186.36,0Zm.57,5.79a3.34,3.34,0,0,0-2.47.84,3.34,3.34,0,0,0-.83,2.46V19.57a3.38,3.38,0,0,0,.83,2.47,3.38,3.38,0,0,0,2.47.83h7.83a3.37,3.37,0,0,0,2.46-.83,3.38,3.38,0,0,0,.83-2.47V9.09a3.34,3.34,0,0,0-.83-2.46,3.33,3.33,0,0,0-2.46-.84Z"/><path class="cls-2" d="M215.86.56h14.27V6.32H216.42a3.33,3.33,0,0,0-2.46.84,3.42,3.42,0,0,0-.83,2.49V19a3.34,3.34,0,0,0,.83,2.46,3.33,3.33,0,0,0,2.46.84h8.94V17.73h-6V12h11.9V28.1H215.86a8.53,8.53,0,0,1-6.32-2.29,8.64,8.64,0,0,1-2.28-6.35V9.17a8.56,8.56,0,0,1,2.28-6.33A8.56,8.56,0,0,1,215.86.56Z"/><path class="cls-2" d="M243.09.56h14.28V6.32H243a3.32,3.32,0,0,0-2.2.63A2.3,2.3,0,0,0,240,8.82a2.25,2.25,0,0,0,.75,1.84,3.38,3.38,0,0,0,2.2.62h6.18a10,10,0,0,1,7,2.23,7.85,7.85,0,0,1,2.51,6.18,7.83,7.83,0,0,1-2.51,6.18,10,10,0,0,1-7,2.23H234.72V22.31h14.57a4.13,4.13,0,0,0,2.55-.66,2.3,2.3,0,0,0,.86-2,2.3,2.3,0,0,0-.86-2,4.2,4.2,0,0,0-2.55-.65h-6.2a9.3,9.3,0,0,1-6.54-2.21,7.83,7.83,0,0,1-2.39-6,7.81,7.81,0,0,1,2.39-6.05A9.3,9.3,0,0,1,243.09.56Z"/><path class="cls-1" d="M.05,49.56V39.43h2V49.56Z"/><path class="cls-1" d="M9.8,45.61V39.43h2V49.56H10.28l-4.35-6.2v6.2h-2V39.43H5.45Z"/><path class="cls-1" d="M13.68,39.43h4a4.59,4.59,0,0,1,3.48,1.46,5.34,5.34,0,0,1,0,7.21,4.63,4.63,0,0,1-3.48,1.46h-4Zm2,8.22h2a2.83,2.83,0,0,0,2.15-.87,3.25,3.25,0,0,0,.82-2.29,3.17,3.17,0,0,0-.82-2.27,2.8,2.8,0,0,0-2.15-.88h-2Z"/><path class="cls-1" d="M24,49.56V39.43h2V49.56Z"/><path class="cls-1" d="M36.57,49.56H34.4l-.61-1.82h-4l-.61,1.82H27l3.55-10.13H33Zm-4.8-7.83-1.38,4.14h2.78Z"/><path class="cls-1" d="M36.74,39.41h2l-1.09,4H36.16Z"/><path class="cls-1" d="M43.43,49.76a4.59,4.59,0,0,1-2.52-.66,3.7,3.7,0,0,1-1.46-1.84l1.71-1a2.27,2.27,0,0,0,2.33,1.55,2.1,2.1,0,0,0,1.21-.29,1,1,0,0,0-.07-1.61,7.2,7.2,0,0,0-1.71-.65,7.67,7.67,0,0,1-2.1-.94,2.45,2.45,0,0,1-1-2.09,2.66,2.66,0,0,1,1-2.18,3.5,3.5,0,0,1,2.36-.83,3.88,3.88,0,0,1,3.62,2.28l-1.68,1a2,2,0,0,0-1.94-1.31,1.57,1.57,0,0,0-1,.28.9.9,0,0,0-.36.74,1,1,0,0,0,.39.78,5.94,5.94,0,0,0,1.53.63l.7.24.65.24a2.94,2.94,0,0,1,.64.31,2.58,2.58,0,0,1,.95.89,2.93,2.93,0,0,1-.65,3.67A4.11,4.11,0,0,1,43.43,49.76Z"/><path class="cls-1" d="M58.08,39.43v1.91H54v2.4H58v1.91H54v3.91H52V39.43Z"/><path class="cls-1" d="M59.54,49.56V39.43h2V49.56Z"/><path class="cls-1" d="M71.14,49.56H69l-2-3.52H65.42v3.52h-2V39.43h4.06a3.35,3.35,0,0,1,3.37,3.35,3.09,3.09,0,0,1-.54,1.75,3.38,3.38,0,0,1-1.41,1.21Zm-3.66-8.27H65.42v3h2.06a1.3,1.3,0,0,0,1-.44,1.53,1.53,0,0,0,.4-1.07,1.48,1.48,0,0,0-.4-1.05A1.3,1.3,0,0,0,67.48,41.29Z"/><path class="cls-1" d="M75.61,49.76a4.53,4.53,0,0,1-2.51-.66,3.66,3.66,0,0,1-1.47-1.84l1.71-1a2.28,2.28,0,0,0,2.33,1.55,2.13,2.13,0,0,0,1.22-.29.91.91,0,0,0,.4-.78.92.92,0,0,0-.47-.83,7.2,7.2,0,0,0-1.71-.65,7.4,7.4,0,0,1-2.1-.94,2.43,2.43,0,0,1-1-2.09,2.69,2.69,0,0,1,1-2.18,3.54,3.54,0,0,1,2.36-.83,3.94,3.94,0,0,1,2.16.6A3.88,3.88,0,0,1,79,41.5l-1.68,1a2,2,0,0,0-1.94-1.31,1.6,1.6,0,0,0-1,.28.9.9,0,0,0-.36.74,1,1,0,0,0,.39.78,5.88,5.88,0,0,0,1.54.63l.69.24.65.24a2.94,2.94,0,0,1,.64.31,2.81,2.81,0,0,1,.3,4.56A4.09,4.09,0,0,1,75.61,49.76Z"/><path class="cls-1" d="M79.48,39.43h7.46v1.91H84.2v8.22h-2V41.34H79.48Z"/><path class="cls-1" d="M91.67,39.43h3.78a3.4,3.4,0,0,1,2.46,1,3.43,3.43,0,0,1,0,4.84,3.44,3.44,0,0,1-2.46,1H93.67v3.33h-2Zm2,4.93h1.78a1.43,1.43,0,0,0,1.06-.44,1.64,1.64,0,0,0,0-2.19,1.43,1.43,0,0,0-1.06-.44H93.67Z"/><path class="cls-1" d="M103.38,49.76a4.59,4.59,0,0,1-2.52-.66,3.7,3.7,0,0,1-1.46-1.84l1.71-1a2.28,2.28,0,0,0,2.33,1.55,2.13,2.13,0,0,0,1.22-.29,1,1,0,0,0-.08-1.61,6.91,6.91,0,0,0-1.7-.65,7.4,7.4,0,0,1-2.1-.94,2.43,2.43,0,0,1-1-2.09,2.66,2.66,0,0,1,1-2.18,3.52,3.52,0,0,1,2.36-.83,3.94,3.94,0,0,1,2.16.6,3.88,3.88,0,0,1,1.46,1.68l-1.68,1a2,2,0,0,0-1.94-1.31,1.6,1.6,0,0,0-1,.28.9.9,0,0,0-.36.74,1,1,0,0,0,.39.78,5.94,5.94,0,0,0,1.53.63l.7.24.65.24a2.94,2.94,0,0,1,.64.31,2.58,2.58,0,0,1,1,.89,2.93,2.93,0,0,1-.65,3.67A4.09,4.09,0,0,1,103.38,49.76Z"/><path class="cls-1" d="M113.68,39.43h2.26l-3.48,6.18v4h-2v-4L107,39.43h2.25l2.21,4.22Z"/><path class="cls-1" d="M121,49.76a5.27,5.27,0,1,1,2.54-9.89,4.69,4.69,0,0,1,1.82,1.74l-1.72,1a2.66,2.66,0,0,0-1.07-1.06,3.47,3.47,0,0,0-4,.54,3.67,3.67,0,0,0,0,4.79,3.21,3.21,0,0,0,2.39.93,3.15,3.15,0,0,0,1.57-.39,2.52,2.52,0,0,0,1.07-1.05l1.72,1a4.65,4.65,0,0,1-1.82,1.75A5.13,5.13,0,0,1,121,49.76Z"/><path class="cls-1" d="M132.32,43.45v-4h2V49.56h-2v-4.2h-3.76v4.2h-2V39.43h2v4Z"/><path class="cls-1" d="M144.72,48.24a5.26,5.26,0,0,1-9-3.75,5.26,5.26,0,1,1,10.52,0A5.1,5.1,0,0,1,144.72,48.24Zm-6.07-1.36a3.38,3.38,0,0,0,4.66,0,3.51,3.51,0,0,0,0-4.78,3.17,3.17,0,0,0-2.33-.94,3.21,3.21,0,0,0-2.33.94,3.51,3.51,0,0,0,0,4.78Z"/><path class="cls-1" d="M149.65,39.43v8.22h3.87v1.91h-5.86V39.43Z"/><path class="cls-1" d="M162.55,48.24a5.35,5.35,0,0,1-7.47,0,5.16,5.16,0,0,1-1.52-3.75,5.27,5.27,0,0,1,9-3.73,5.31,5.31,0,0,1,0,7.48Zm-6.06-1.36a3.38,3.38,0,0,0,4.66,0,3.33,3.33,0,0,0-2.33-5.72,3.17,3.17,0,0,0-2.33.94,3.51,3.51,0,0,0,0,4.78Z"/><path class="cls-1" d="M170.36,44.12h5.08v.78a4.67,4.67,0,0,1-1.39,3.52,5,5,0,0,1-3.59,1.34,5.34,5.34,0,0,1-3.9-1.52,5.28,5.28,0,0,1,3.78-9,5.25,5.25,0,0,1,2.58.64,4.84,4.84,0,0,1,1.84,1.72l-1.71,1a2.66,2.66,0,0,0-1.1-1,3.4,3.4,0,0,0-1.62-.39,3.17,3.17,0,0,0-2.39,1,3.5,3.5,0,0,0,0,4.76,3.44,3.44,0,0,0,2.52.93,3.38,3.38,0,0,0,1.91-.51,2.52,2.52,0,0,0,1.05-1.42h-3.07Z"/><path class="cls-1" d="M181.88,39.43h2.26l-3.47,6.18v4h-2v-4l-3.46-6.18h2.26l2.2,4.22Z"/><path class="cls-1" d="M196.59,39.43h2.06V49.56h-2V43l-2.85,4.7h-.23L190.73,43v6.56h-2V39.43h2.05l2.91,4.79Z"/><path class="cls-1" d="M209.22,49.56H207l-.6-1.82h-4l-.61,1.82h-2.16l3.55-10.13h2.47Zm-4.8-7.83L203,45.87h2.78Z"/><path class="cls-1" d="M214.7,44.12h5.08v.78a4.67,4.67,0,0,1-1.39,3.52,5,5,0,0,1-3.59,1.34,5.3,5.3,0,0,1-3.89-1.52,5.28,5.28,0,0,1,3.78-9,5.31,5.31,0,0,1,2.58.64,4.74,4.74,0,0,1,1.83,1.72l-1.7,1a2.72,2.72,0,0,0-1.1-1,3.47,3.47,0,0,0-1.63-.39,3.19,3.19,0,0,0-2.39,1,3.26,3.26,0,0,0-.92,2.39,3.21,3.21,0,0,0,.94,2.37,3.44,3.44,0,0,0,2.52.93,3.38,3.38,0,0,0,1.91-.51,2.51,2.51,0,0,0,1-1.42H214.7Z"/><path class="cls-1" d="M229.53,49.56h-2.17l-.61-1.82h-4l-.61,1.82h-2.16l3.55-10.13H226Zm-4.79-7.83-1.39,4.14h2.78Z"/><path class="cls-1" d="M236.85,41l-4.21,6.65h4.3v1.91h-6.85V48l4.22-6.63h-4.12V39.43h6.66Z"/><path class="cls-1" d="M238.26,49.56V39.43h2V49.56Z"/><path class="cls-1" d="M248,45.61V39.43h2V49.56h-1.52l-4.34-6.2v6.2h-2V39.43h1.52Z"/><path class="cls-1" d="M253.88,45.38v2.27h4.27v1.91h-6.27V39.43h6.2v1.91h-4.2v2.15h3.84v1.89Z"/></g></g></svg>