<?xml version="1.0" standalone="no"?>
<!DOCTYPE svg PUBLIC "-//W3C//DTD SVG 20010904//EN"
 "http://www.w3.org/TR/2001/REC-SVG-20010904/DTD/svg10.dtd">
<svg version="1.0" xmlns="http://www.w3.org/2000/svg"
 width="1398.000000pt" height="229.000000pt" viewBox="0 0 1398.000000 229.000000"
 preserveAspectRatio="xMidYMid meet">
<metadata>
Created by potrace 1.16, written by Peter Selinger 2001-2019
</metadata>
<g transform="translate(0.000000,229.000000) scale(0.100000,-0.100000)"
fill="#000000" stroke="none">
<path d="M1177 2270 c-3 -8 -10 -42 -16 -76 -6 -33 -22 -103 -35 -154 -22 -86
-26 -95 -51 -102 -16 -4 -37 -3 -47 3 -10 6 -27 8 -36 6 -16 -4 -16 -5 1 -6
35 -2 15 -21 -23 -21 -23 0 -40 -5 -40 -11 0 -7 -10 -9 -25 -5 -19 5 -25 2
-25 -10 0 -12 -7 -15 -25 -12 -14 3 -23 1 -22 -6 1 -6 -8 -11 -19 -10 -13 0
-20 -4 -17 -12 2 -6 -7 -14 -20 -18 -14 -3 -41 -20 -61 -38 -36 -32 -48 -55
-22 -45 7 3 35 -11 62 -32 27 -20 70 -51 97 -69 l47 -33 91 36 c81 33 100 37
187 37 111 1 174 -15 272 -67 35 -19 69 -35 75 -35 7 0 20 -9 30 -20 19 -21
35 -26 35 -12 0 5 -12 14 -27 21 -15 7 -22 16 -17 21 11 11 106 64 157 87 31
15 37 23 35 43 -2 14 -8 24 -14 23 -6 -1 -24 10 -40 25 -17 15 -42 33 -57 40
-16 6 -25 17 -22 22 3 6 -5 10 -19 10 -14 0 -35 9 -46 20 -12 12 -26 17 -37
13 -12 -5 -15 -2 -10 10 5 14 1 15 -23 10 -19 -3 -30 -1 -30 6 0 6 -16 11 -35
11 -19 0 -35 5 -35 10 0 6 5 10 12 10 6 0 9 2 6 5 -3 3 -17 1 -32 -5 -15 -5
-42 -6 -64 -2 -32 7 -38 12 -43 42 -4 19 -14 62 -23 95 -10 33 -23 94 -30 135
-8 41 -16 68 -19 60z"/>
<path d="M4825 1716 c-114 -29 -203 -91 -250 -177 -27 -49 -30 -62 -30 -149 0
-110 15 -147 86 -217 42 -42 175 -114 274 -149 28 -9 67 -34 88 -54 31 -32 37
-44 37 -80 0 -127 -203 -149 -441 -46 -13 6 -19 -7 -33 -71 -10 -43 -22 -93
-28 -111 -5 -18 -8 -36 -5 -38 3 -3 38 -17 78 -32 68 -24 86 -26 239 -27 149
0 171 2 226 23 94 36 166 98 205 178 29 59 33 75 32 149 -1 174 -78 253 -358
366 -101 41 -135 73 -135 126 0 51 29 78 98 94 59 14 184 0 254 -28 21 -9 40
-14 42 -12 6 6 57 211 54 214 -12 9 -103 36 -152 45 -79 13 -219 11 -281 -4z"/>
<path d="M11300 1716 c-101 -28 -180 -88 -222 -170 -25 -49 -34 -146 -19 -203
25 -92 122 -181 256 -235 170 -68 226 -115 240 -199 16 -92 -45 -185 -137
-210 -71 -19 -192 -6 -278 30 -40 17 -75 30 -76 28 -1 -1 -9 -29 -18 -61 -10
-42 -12 -64 -5 -72 6 -7 41 -23 77 -36 58 -20 86 -23 207 -23 130 1 144 2 196
27 73 34 134 89 167 152 24 45 27 62 27 146 0 107 -9 133 -78 207 -44 47 -136
103 -213 130 -75 25 -163 81 -185 116 -59 97 -19 203 90 242 63 22 137 19 226
-10 43 -14 79 -24 80 -23 5 7 35 103 35 113 0 16 -63 43 -129 55 -72 13 -186
12 -241 -4z"/>
<path d="M2773 1712 c-34 -4 -67 -12 -73 -18 -7 -7 -9 -185 -8 -565 l3 -554
133 -3 132 -3 0 203 0 203 103 1 c231 2 378 90 436 261 51 151 4 317 -113 402
-88 63 -138 73 -356 76 -107 2 -223 0 -257 -3z m394 -217 c62 -25 86 -69 81
-148 -4 -74 -25 -108 -83 -137 -45 -22 -140 -36 -179 -26 l-26 6 0 159 c0 157
0 160 23 165 41 9 141 -1 184 -19z"/>
<path d="M10260 1714 c-19 -3 -45 -7 -57 -9 l-23 -5 0 -566 0 -565 78 3 77 3
3 243 2 242 78 0 c137 0 207 -34 240 -116 7 -16 27 -90 46 -164 18 -74 41
-152 49 -172 l16 -38 82 0 c73 0 80 2 74 17 -18 45 -45 138 -70 243 -32 136
-74 222 -127 261 l-38 27 44 26 c54 31 103 86 128 143 23 52 27 167 7 232 -19
62 -79 125 -157 163 -67 32 -67 32 -242 34 -96 1 -191 0 -210 -2z m335 -134
c163 -50 178 -289 23 -364 -43 -21 -74 -27 -165 -32 l-113 -7 0 206 c0 205 0
206 23 210 37 9 189 0 232 -13z"/>
<path d="M590 1685 c-13 -14 -28 -25 -34 -25 -6 -1 -21 -22 -33 -48 -12 -26
-31 -57 -41 -68 -11 -11 -23 -35 -27 -52 -3 -18 -11 -34 -16 -37 -5 -4 -9 -15
-9 -26 0 -11 -7 -22 -16 -26 -8 -3 -13 -12 -9 -21 7 -18 -3 -54 -14 -48 -4 3
-5 -10 -3 -29 6 -53 -9 -69 -80 -84 -34 -7 -77 -17 -94 -21 -17 -4 -44 -5 -59
-2 -16 3 -30 0 -35 -8 -5 -7 -22 -13 -39 -12 -36 1 -41 -14 -8 -23 12 -3 31
-10 42 -15 11 -4 56 -13 100 -19 44 -6 81 -15 83 -19 1 -5 15 -7 30 -5 45 6
56 -9 57 -76 0 -39 4 -62 13 -66 6 -2 12 -15 12 -28 0 -13 4 -27 9 -32 4 -6
17 -32 27 -60 22 -61 84 -155 101 -155 7 0 13 4 13 9 0 5 15 27 33 49 17 22
39 50 47 62 8 13 26 36 39 52 22 27 23 33 12 62 -48 119 -55 153 -55 246 1
102 24 182 76 266 34 54 39 72 25 81 -13 9 -20 20 -80 131 -21 39 -40 72 -41
72 -1 0 -13 -11 -26 -25z"/>
<path d="M3670 1140 l0 -570 365 0 365 0 0 113 0 112 -230 -3 -230 -3 0 130 0
131 210 0 210 0 0 110 0 110 -210 0 -210 0 0 110 0 110 220 0 220 0 0 110 0
110 -355 0 -355 0 0 -570z"/>
<path d="M5830 1333 c0 -208 4 -403 9 -433 24 -142 99 -253 209 -307 54 -26
64 -28 192 -28 132 0 137 1 201 32 110 54 176 143 214 288 12 48 15 129 15
442 l0 383 -80 0 -80 0 0 -382 c0 -287 -4 -396 -14 -433 -35 -133 -103 -194
-227 -203 -120 -8 -190 31 -242 137 l-32 66 -3 408 -3 407 -79 0 -80 0 0 -377z"/>
<path d="M6910 1140 l0 -570 76 0 75 0 -3 464 -3 463 41 -76 c62 -116 318
-534 480 -783 l44 -68 75 0 75 0 0 570 0 570 -76 0 -76 0 4 -440 c2 -242 2
-440 1 -440 -2 0 -19 32 -38 71 -41 80 -178 302 -407 659 l-93 145 -88 3 -87
3 0 -571z"/>
<path d="M8020 1140 l0 -570 80 0 80 0 0 570 0 570 -80 0 -80 0 0 -570z"/>
<path d="M8300 1703 c0 -8 21 -73 202 -628 71 -220 138 -422 148 -450 l18 -50
82 0 c63 0 85 4 91 15 4 8 31 80 59 160 72 202 117 328 161 450 69 188 179
499 179 505 0 3 -37 5 -83 5 l-83 0 -32 -92 c-17 -51 -68 -199 -113 -328 -45
-129 -89 -262 -99 -295 -10 -33 -30 -100 -46 -150 l-28 -90 -13 60 c-14 60
-61 216 -133 440 -37 115 -121 386 -135 433 -6 21 -12 22 -91 22 -46 0 -84 -3
-84 -7z"/>
<path d="M9360 1140 l0 -570 323 2 322 3 3 68 3 67 -251 0 -250 0 0 195 0 195
220 0 220 0 0 70 0 71 -217 -1 -218 -2 -3 171 -2 171 235 0 235 0 0 65 0 65
-310 0 -310 0 0 -570z"/>
<path d="M11910 1140 l0 -570 80 0 80 0 0 570 0 570 -80 0 -80 0 0 -570z"/>
<path d="M12180 1645 l0 -65 175 0 175 0 0 -502 -1 -503 76 -3 75 -3 0 506 0
505 175 0 175 0 0 65 0 65 -425 0 -425 0 0 -65z"/>
<path d="M13090 1705 c0 -3 32 -62 71 -133 40 -70 118 -212 175 -316 l104
-189 2 -246 3 -246 79 0 78 0 -1 237 -2 236 142 244 c78 133 164 280 190 326
27 46 49 85 49 88 0 2 -40 4 -88 4 l-88 0 -61 -117 c-34 -65 -95 -183 -135
-263 l-74 -146 -133 263 -133 263 -89 0 c-49 0 -89 -2 -89 -5z"/>
<path d="M1786 1646 c5 -20 -4 -37 -38 -80 -23 -30 -51 -65 -60 -78 l-18 -23
-25 28 c-30 33 -34 21 -5 -16 11 -14 20 -31 20 -37 0 -7 9 -29 20 -49 87 -161
76 -372 -26 -521 -33 -48 -42 -75 -26 -82 4 -1 17 -21 28 -43 18 -34 75 -143
81 -153 1 -2 10 -1 20 2 40 13 193 251 193 302 0 8 7 17 16 21 10 4 14 13 10
29 -7 25 2 56 14 49 4 -2 5 15 3 39 l-5 44 41 11 c22 6 59 16 80 21 21 6 47 7
56 4 10 -4 20 -1 25 6 4 7 25 13 46 13 34 0 39 3 39 22 0 20 -4 22 -36 18 -22
-3 -41 0 -50 8 -8 8 -31 14 -52 15 -21 0 -42 6 -46 13 -5 7 -21 12 -37 10 -64
-5 -67 -3 -62 46 3 24 2 42 -3 39 -11 -6 -23 41 -14 56 4 6 1 17 -7 23 -8 7
-22 36 -33 66 -36 106 -171 283 -149 197z"/>
<path d="M1047 1569 c-188 -64 -307 -226 -307 -417 0 -105 27 -184 89 -262 81
-101 175 -156 295 -172 272 -36 512 171 509 440 -2 189 -122 348 -310 413 -75
25 -197 25 -276 -2z m97 -83 c-3 -11 -10 -25 -15 -30 -22 -23 -8 -36 36 -34
33 2 45 7 46 18 0 10 2 11 6 3 2 -7 20 -20 39 -29 41 -20 119 -109 104 -119
-6 -4 -22 1 -35 9 -21 14 -25 14 -25 2 0 -8 5 -18 10 -21 6 -3 10 -13 10 -21
0 -10 -12 -14 -39 -14 -30 0 -42 5 -55 25 -9 14 -23 25 -31 25 -9 0 -15 9 -15
24 0 23 -16 34 -77 51 -18 5 -22 3 -17 -10 4 -8 15 -20 25 -26 12 -6 19 -21
19 -38 0 -18 10 -38 25 -52 13 -13 25 -29 25 -34 0 -6 9 -16 20 -23 11 -7 20
-21 20 -32 0 -11 -9 -25 -20 -32 -21 -14 -27 -38 -9 -38 6 0 33 24 60 53 27
28 49 48 49 44 0 -14 -62 -97 -72 -97 -5 0 -16 -7 -25 -15 -9 -9 -23 -13 -34
-10 -21 7 -24 -6 -9 -35 7 -14 6 -28 -7 -54 -18 -38 -33 -39 -33 -1 0 13 -4
26 -9 29 -14 9 -20 84 -9 114 9 23 7 33 -16 66 -29 43 -34 84 -11 92 20 8 19
24 -1 24 -12 0 -15 7 -12 25 5 25 -5 38 -49 63 -30 16 -33 15 -33 -7 0 -18
-26 -48 -35 -39 -10 10 17 79 36 91 23 14 25 27 3 27 -26 0 -10 24 22 31 16 4
42 13 58 22 40 21 90 5 80 -27z"/>
<path d="M805 716 c-42 -29 -172 -94 -186 -94 -39 3 -59 -3 -59 -17 0 -12 4
-13 19 -4 16 10 25 5 67 -37 27 -27 62 -55 77 -62 15 -6 30 -18 33 -26 3 -8
12 -12 20 -9 7 3 16 -2 20 -10 3 -9 12 -13 20 -10 9 3 14 -1 14 -12 0 -12 5
-15 20 -10 14 5 20 2 20 -10 0 -11 8 -16 23 -15 35 3 43 0 27 -10 -11 -6 -2
-9 30 -7 29 1 44 -2 43 -9 -1 -8 16 -11 49 -10 59 1 50 17 94 -172 27 -118 46
-150 52 -86 1 16 7 47 12 69 5 22 15 65 21 95 16 68 32 93 61 97 13 1 35 5 50
7 15 3 30 1 33 -4 9 -14 25 -12 23 2 -2 7 8 14 22 16 14 2 30 8 36 13 5 4 20
6 32 2 12 -3 22 -1 22 5 0 12 74 52 95 52 8 0 15 5 15 10 0 6 5 10 10 10 12 0
50 37 50 49 0 4 -12 17 -27 29 -16 11 -59 43 -96 71 -37 28 -74 51 -81 51 -7
0 -30 -9 -52 -19 -96 -46 -223 -62 -333 -41 -55 10 -165 57 -211 90 -33 24
-39 24 -65 6z"/>
</g>
</svg>
